# xmcd
#
# Track frame offsets: 
#        150
#        14471
#        31811
#        53851
#        73212
#        84728
#        100110
#        127017
#        147707
#        163164
#        177995
#        196085
#
# Disc length: 2895 seconds
#
# Revision: 0
# Processed by: cddbd v1.5.2PL0 Copyright (c) Steve Scherf et al.
# Submitted via: ExactAudioCopyFreeDBPlugin 1.0
#
DISCID=ad0b4d0c
DTITLE=Valerie McCleary - Ruby's Daughter
DYEAR=2018
DGENRE=Blues
TTITLE0=Killin the blues
TTITLE1=Rossnowlagh
TTITLE2=Am I blue
TTITLE3=Wayfarin Stranger
TTITLE4=Close your Eyes feat. Folksfest
TTITLE5=Oh Papaya
TTITLE6=Ruby
TTITLE7=Tanushree's Lullaby
TTITLE8=Somewhere over the Rainbow
TTITLE9=To make you feel my love
TTITLE10=The Rose
TTITLE11=She moved thru the Fair
EXTD=
EXTT0=
EXTT1=
EXTT2=
EXTT3=
EXTT4=
EXTT5=
EXTT6=
EXTT7=
EXTT8=
EXTT9=
EXTT10=
EXTT11=
PLAYORDER=
